<svg xmlns="http://www.w3.org/2000/svg" width="38.489" height="36.174" viewBox="0 0 38.489 36.174">
  <path id="air_icon" data-name="air icon" d="M215.16,258.382l-.231,6.907a.811.811,0,0,0-.112.057l-.5.307a.965.965,0,0,0,.64,1.778l.019,1.287a.949.949,0,0,0-.217.095l-.5.307a.964.964,0,0,0,.745,1.756l.059,4.052c-3.716,2.666-9.836,6.074-8.545,8.163,1.276,2.063,7.123-1.849,11.193-4.018l3.472,1.8a.964.964,0,0,0,1.237,1.452l.5-.307a.924.924,0,0,0,.182-.152l1.143.592a.965.965,0,0,0,1.3,1.367l.5-.307a.826.826,0,0,0,.1-.075l6.714,2.79,1.6-.991-11.6-9.105q.38-.229.781-.477c1.7-1.049,3.283-2.106,4.712-3.128a45,45,0,0,0,5.41-4.422l3.233,1.189,1.457-.9-2.152-2.393a9.208,9.208,0,0,0,.953-1.916,9.222,9.222,0,0,0-2.14,0l-1.15-3.047-1.458.9-.411,3.476a45.034,45.034,0,0,0-6.374,2.862c-1.553.822-3.208,1.768-4.9,2.817-.279.173-.548.341-.808.506l-3.258-14.209Z" transform="matrix(-0.966, 0.259, -0.259, -0.966, 304.423, 223.075)" fill="#ff9000"/>
</svg>
