<svg xmlns="http://www.w3.org/2000/svg" width="32.838" height="19.857" viewBox="0 0 32.838 19.857">
  <g id="road_icon" data-name="road icon" transform="translate(-252.949 -418.286)">
    <path id="Path_22" data-name="Path 22" d="M330.335,440.809h-5.181v-5.683h3.151l2.03,5.683Zm-2.686,3.085a1.494,1.494,0,1,1-.005.006l.005-.006Zm2.158-10.646h-8.4v11.932h3.678a3.562,3.562,0,0,0,6.069,2.23l0-.005a3.537,3.537,0,0,0,1.032-2.225h.768v-4.052Z" transform="translate(-47.171 -10.309)" fill="#ff9000" fill-rule="evenodd"/>
    <path id="Path_23" data-name="Path 23" d="M256.566,433.585a1.762,1.762,0,1,1,0,.006l0-.006Zm.989-2.568a3.546,3.546,0,0,0-1.83.506h-2.777v3.348H254a3.562,3.562,0,0,0,6.069,2.23l0-.005a3.548,3.548,0,0,0,1.03-2.225H272.4V418.286H252.949v3.248h15.2v1.273h-15.2v3.049h15.2v1.273h-15.2v3.121h15.2v1.273H259.39A3.54,3.54,0,0,0,257.556,431.016Z" transform="translate(0 0)" fill="#ff9000" fill-rule="evenodd"/>
  </g>
</svg>
