<svg xmlns="http://www.w3.org/2000/svg" width="24.864" height="26" viewBox="0 0 24.864 26">
  <path id="Path_32" data-name="Path 32" d="M26.025,27.388l3.23,2.724A1.027,1.027,0,0,1,29.7,31a1.061,1.061,0,0,1-.348.823,1.145,1.145,0,0,1-.792.317H6.01a1.215,1.215,0,0,1-.887-.38,1.172,1.172,0,0,1-.285-.855,1.09,1.09,0,0,1,.412-.792q3.1-2.724,3.2-2.755t.348-.1a11.913,11.913,0,0,0,3.04-1.33,2.894,2.894,0,0,0,1.14-1.393,1.315,1.315,0,0,0,.823-.95,6.173,6.173,0,0,0,.063-1.964,1.474,1.474,0,0,1-.253-.38,3.566,3.566,0,0,1-.222-.57,2.208,2.208,0,0,1-.1-.38,17.014,17.014,0,0,1-.76-2.217q0-.127-.19-.253a.61.61,0,0,1-.317-.253.929.929,0,0,1-.222-.6,2.467,2.467,0,0,0-.158-.728q-.7-1.584-.253-1.964a.378.378,0,0,1,.38-.063q.063-.063.032-.063t-.032-.253l-.253-2.6h.063a4.046,4.046,0,0,1,.38-2.407,1.726,1.726,0,0,1,.412-.633,1.28,1.28,0,0,1,.412-.253,2.458,2.458,0,0,0,.317-.127,4.277,4.277,0,0,1,.887-.792A4.493,4.493,0,0,1,15,6.612a3.494,3.494,0,0,1,.7-.19,4.739,4.739,0,0,1,3.864.317l.6.19a3.888,3.888,0,0,1,.982.443,1.549,1.549,0,0,1,.57.7,2.482,2.482,0,0,1,.253.57,6.836,6.836,0,0,1,.19.665q.063.285.127.285a7.9,7.9,0,0,1,.063,1.774A24.159,24.159,0,0,1,22.1,13.9a1.324,1.324,0,0,0-.063.222v.1q.317-.127.38,0,.507.443-.127,2.027a3.246,3.246,0,0,0-.158.7,2.414,2.414,0,0,1-.1.507.807.807,0,0,1-.38.38.248.248,0,0,0-.19.253q-.253,1.14-.57,2.217a3.438,3.438,0,0,1-.633,1.267,4.749,4.749,0,0,0,.19,2.027,1.36,1.36,0,0,0,.76.95.486.486,0,0,0,.063.19,7.2,7.2,0,0,0,.57.982,3.81,3.81,0,0,0,1.2.855,7.168,7.168,0,0,0,2.47.7Z" transform="translate(-4.835 -6.139)" fill="#ff9000"/>
</svg>
