<svg xmlns="http://www.w3.org/2000/svg" width="581.721" height="654.626" viewBox="0 0 581.721 654.626">
  <path id="testimonial-arrows" d="M-1590.934,895.126a401.371,401.371,0,0,1-43.489-2.349,382.819,382.819,0,0,1-41.337-6.825,372.912,372.912,0,0,1-39.095-10.966,370.065,370.065,0,0,1-36.762-14.771,372.863,372.863,0,0,1-34.339-18.242,379.636,379.636,0,0,1-31.827-21.378,393.05,393.05,0,0,1-55.754-50.822,409.83,409.83,0,0,1-44.62-59.344,412.873,412.873,0,0,1-32.765-65.187,394.352,394.352,0,0,1-20.188-68.349,355.642,355.642,0,0,1-6.89-68.831c0-53.7,13.341-107.562,39.654-160.1a459.712,459.712,0,0,1,36.792-60.836,506.13,506.13,0,0,1,36.746-45.622h59.005c-32.619,28.776-58.282,61.806-76.276,98.175a296.792,296.792,0,0,0-13.112,30.766,301.127,301.127,0,0,0-9.887,33.389,316.05,316.05,0,0,0-6.241,36.078,343.553,343.553,0,0,0-2.174,38.835,353.573,353.573,0,0,0,2.685,43.795,324.235,324.235,0,0,0,7.619,40.191,310.056,310.056,0,0,0,11.9,36.7,308.249,308.249,0,0,0,15.531,33.306,316.448,316.448,0,0,0,18.509,30.025,332.388,332.388,0,0,0,20.834,26.851,363.661,363.661,0,0,0,46.033,44.609,405.385,405.385,0,0,0,91.264,55.851,296.6,296.6,0,0,0,34.793,12.961c8.924,2.624,16.436,4.129,20.609,4.129a43.136,43.136,0,0,0,15.069-2.7,40.508,40.508,0,0,0,13.149-7.925,37.887,37.887,0,0,0,9.3-12.873,43.153,43.153,0,0,0,3.529-17.546c0-8.027-2.467-16.876-7.331-26.3a129.4,129.4,0,0,0-16.129-23.551,201.8,201.8,0,0,0-16.129-16.953c-4.292-4.024-7.209-6.406-7.331-6.506l252.175,140.747c-.069.167-1.727,4.046-6.528,9.622a81.506,81.506,0,0,1-10.247,9.862,119.166,119.166,0,0,1-16.759,11.305c-15.854,8.938-35.576,16.06-58.62,21.168a384.859,384.859,0,0,1-44.645,6.976C-1551.746,894.235-1570.831,895.126-1590.934,895.126ZM-1490.5,696.67v0H-1543.3a175.339,175.339,0,0,1-20.147-1.43,288.57,288.57,0,0,1-32.6-5.888,296.782,296.782,0,0,1-40.38-12.744,265.7,265.7,0,0,1-43.5-22,240.666,240.666,0,0,1-21.461-15.216,228.359,228.359,0,0,1-20.492-18.428,222.893,222.893,0,0,1-18.939-21.94,226.493,226.493,0,0,1-16.8-25.751,241.408,241.408,0,0,1-14.084-29.862,270.607,270.607,0,0,1-10.782-34.272,317.652,317.652,0,0,1-6.9-38.982,387.29,387.29,0,0,1-2.429-43.991,277.016,277.016,0,0,1,1.742-31.292,247.57,247.57,0,0,1,4.991-28.739,229.909,229.909,0,0,1,7.887-26.29,222.19,222.19,0,0,1,10.431-23.945,222.9,222.9,0,0,1,12.623-21.7,230.9,230.9,0,0,1,14.462-19.566,254.044,254.044,0,0,1,33.032-33.134h63.493a264.043,264.043,0,0,0-35.493,34.288,245.659,245.659,0,0,0-29.092,42.013,222.478,222.478,0,0,0-19.67,48.93,213.1,213.1,0,0,0-5.358,26.806,214.052,214.052,0,0,0-1.87,28.232,265.829,265.829,0,0,0,10.7,75.823,230.7,230.7,0,0,0,11.773,31.237,201.994,201.994,0,0,0,14.636,26.329c10.036,15.177,21.655,27.818,33.6,36.559a76.646,76.646,0,0,0,16.834,9.541,42.271,42.271,0,0,0,15.436,3.257,25.867,25.867,0,0,0,10.47-2.081,23.224,23.224,0,0,0,8.425-6.354c4.117-4.867,6.825-11.683,8.047-20.257,1.311-9.2.889-20.332-1.255-33.087L-1490.5,696.668Z" transform="translate(1978.5 -241)" fill="#fff" stroke="rgba(0,0,0,0)" stroke-miterlimit="10" stroke-width="1" opacity="0.199"/>
</svg>
