<svg xmlns="http://www.w3.org/2000/svg" width="30" height="30" viewBox="0 0 30 30">
  <path id="Globe" d="M875,551a15,15,0,1,0,15,15A15.017,15.017,0,0,0,875,551Zm11.932,21.479h-1.559a18.61,18.61,0,0,0,1.113-5.681h2.068A13.489,13.489,0,0,1,886.932,572.479ZM861.445,566.8h2.068a18.608,18.608,0,0,0,1.113,5.681h-1.559A13.486,13.486,0,0,1,861.445,566.8Zm1.623-7.278h1.559a18.643,18.643,0,0,0-1.118,5.858h-2.073A13.484,13.484,0,0,1,863.068,559.521Zm18.05,5.858a34.916,34.916,0,0,0-.569-5.858h3.31a17.186,17.186,0,0,1,1.212,5.858Zm-2.339-7.278h-3.158v-5.539C876.807,553.091,877.993,555.092,878.779,558.1Zm-4.578-5.447V558.1h-2.98C871.967,555.242,873.075,553.295,874.2,552.653Zm0,6.868v5.858h-3.9a32.953,32.953,0,0,1,.594-5.858Zm0,7.278v5.681h-3.3a32.8,32.8,0,0,1-.591-5.681Zm0,7.1v5.447c-1.126-.642-2.234-2.589-2.98-5.447Zm1.42,5.539V573.9h3.158C877.993,576.908,876.807,578.909,875.621,579.439Zm0-6.959V566.8h4.074a32.8,32.8,0,0,1-.591,5.681Zm0-7.1v-5.858H879.1a32.964,32.964,0,0,1,.594,5.858Zm4.622-7.278a21.164,21.164,0,0,0-.751-2.457,12.173,12.173,0,0,0-1.259-2.5,11.01,11.01,0,0,1,4.961,4.96Zm-8.476-4.96a12.161,12.161,0,0,0-1.259,2.5,21.188,21.188,0,0,0-.751,2.457h-2.951A11.007,11.007,0,0,1,871.767,553.141Zm-2.316,6.38a34.929,34.929,0,0,0-.569,5.858h-3.953a17.182,17.182,0,0,1,1.212-5.858Zm-4.515,7.278h3.949a34.81,34.81,0,0,0,.566,5.681h-3.31A17.153,17.153,0,0,1,864.936,566.8Zm4.821,7.1a21.184,21.184,0,0,0,.751,2.457,12.162,12.162,0,0,0,1.259,2.5,11.008,11.008,0,0,1-4.96-4.96Zm8.476,4.96a12.171,12.171,0,0,0,1.259-2.5,21.16,21.16,0,0,0,.751-2.457h2.951A11.01,11.01,0,0,1,878.233,578.86Zm2.316-6.38a34.8,34.8,0,0,0,.566-5.681h3.949a17.154,17.154,0,0,1-1.2,5.681Zm5.942-7.1a18.643,18.643,0,0,0-1.118-5.858h1.559a13.487,13.487,0,0,1,1.632,5.858Zm-.455-7.278h-1.263a14.813,14.813,0,0,0-2.179-3.353A13.692,13.692,0,0,1,886.035,558.1Zm-18.63-3.353a14.81,14.81,0,0,0-2.179,3.353h-1.263A13.691,13.691,0,0,1,867.406,554.747ZM863.964,573.9h1.263a14.811,14.811,0,0,0,2.179,3.353A13.69,13.69,0,0,1,863.964,573.9Zm18.629,3.353a14.813,14.813,0,0,0,2.179-3.353h1.263A13.691,13.691,0,0,1,882.594,577.253Z" transform="translate(-860 -551)" fill="#f39118"/>
</svg>
