<svg xmlns="http://www.w3.org/2000/svg" width="27.375" height="30" viewBox="0 0 27.375 30">
  <path id="Path_33" data-name="Path 33" d="M24.9,27.438a13.122,13.122,0,0,1-9.625,4,13.173,13.173,0,0,1-9.656-4.031A13.1,13.1,0,0,1,1.59,17.813,13.153,13.153,0,0,1,5.152,8.656,13.4,13.4,0,0,1,13.84,4.188V2.875a1.428,1.428,0,0,1,.406-1,1.311,1.311,0,0,1,1-.437,1.411,1.411,0,0,1,1.031.438,1.377,1.377,0,0,1,.438,1V4.188a13.171,13.171,0,0,1,7.375,3.25l1-1a1.427,1.427,0,0,1,1.125-.5A1.387,1.387,0,0,1,27.59,7.313a1.361,1.361,0,0,1-.5,1.062L26.027,9.438a13.422,13.422,0,0,1-1.125,18ZM13.715,19.313a2.259,2.259,0,0,0,1.563.625A2.134,2.134,0,0,0,17.4,17.813a1.976,1.976,0,0,0-1.187-1.937V9.188a.8.8,0,0,0-.281-.625.986.986,0,0,0-1.312,0,.8.8,0,0,0-.281.625v6.688a2.121,2.121,0,0,0-.625,3.437Z" transform="translate(-1.59 -1.438)" fill="#f39118"/>
</svg>
