<svg id="email-icon" xmlns="http://www.w3.org/2000/svg" width="20" height="15" viewBox="0 0 20 15">
  <path id="Path_19" data-name="Path 19" d="M498,243.5a2.475,2.475,0,0,1-.321,1.2l-6.315-7.065,6.246-5.465A2.482,2.482,0,0,1,498,233.5Zm-10-4.58,8.691-7.6A2.468,2.468,0,0,0,495.5,231h-15a2.459,2.459,0,0,0-1.191.315Zm2.423-.46-2.012,1.762a.627.627,0,0,1-.823,0l-2.012-1.761-6.395,7.156A2.47,2.47,0,0,0,480.5,246h15a2.469,2.469,0,0,0,1.318-.385Zm-12.034-6.288A2.482,2.482,0,0,0,478,233.5v10a2.469,2.469,0,0,0,.321,1.2l6.314-7.067Zm0,0" transform="translate(-478 -231)" fill="#1d1d1d"/>
</svg>
