<svg id="hours-icon" xmlns="http://www.w3.org/2000/svg" width="20" height="20" viewBox="0 0 20 20">
  <path id="Path_27" data-name="Path 27" d="M654,345a10,10,0,1,0,10,10,10.011,10.011,0,0,0-10-10Zm0,17.872A7.872,7.872,0,1,1,661.873,355,7.881,7.881,0,0,1,654,362.872Zm0,0" transform="translate(-644 -345)" fill="#1d1d1d"/>
  <path id="Path_28" data-name="Path 28" d="M685.394,364.692H680.9v-5.4a.823.823,0,1,0-1.646,0v6.227a.823.823,0,0,0,.823.823h5.317a.823.823,0,1,0,0-1.647Zm0,0" transform="translate(-670.183 -355)" fill="#1d1d1d"/>
</svg>
