<svg xmlns="http://www.w3.org/2000/svg" width="26.667" height="20" viewBox="0 0 26.667 20">
  <g id="email-icon" transform="translate(-478 -231)">
    <path id="Path_19" data-name="Path 19" d="M504.667,247.667a3.3,3.3,0,0,1-.428,1.6l-8.42-9.421,8.329-7.287a3.309,3.309,0,0,1,.519,1.771Zm-13.333-6.107,11.589-10.14a3.29,3.29,0,0,0-1.589-.42h-20a3.279,3.279,0,0,0-1.588.42Zm3.231-.614-2.682,2.349a.836.836,0,0,1-1.1,0l-2.683-2.349-8.526,9.541a3.293,3.293,0,0,0,1.758.513h20a3.292,3.292,0,0,0,1.758-.513Zm-16.045-8.384a3.31,3.31,0,0,0-.519,1.771v13.333a3.292,3.292,0,0,0,.428,1.6l8.419-9.422Zm0,0" fill="#ff9000"/>
  </g>
</svg>
