<svg xmlns="http://www.w3.org/2000/svg" width="20" height="20" viewBox="0 0 20 20">
  <g id="insta" transform="translate(-1410.69 -239.914)">
    <path id="Path_30" data-name="Path 30" d="M1426.824,239.914h-12.27a3.868,3.868,0,0,0-3.864,3.865v12.271a3.868,3.868,0,0,0,3.864,3.865h12.27a3.87,3.87,0,0,0,3.866-3.865V243.779A3.87,3.87,0,0,0,1426.824,239.914Zm1.109,2.306.441,0v3.389l-3.378.012-.011-3.389Zm-10.1,5.642a3.513,3.513,0,1,1-.667,2.052A3.518,3.518,0,0,1,1417.835,247.862Zm10.907,8.187a1.919,1.919,0,0,1-1.918,1.917h-12.27a1.918,1.918,0,0,1-1.917-1.917v-8.187h2.986a5.47,5.47,0,1,0,10.131,0h2.987Z" fill="#fff"/>
  </g>
</svg>
