<svg xmlns="http://www.w3.org/2000/svg" width="25.003" height="20" viewBox="0 0 25.003 20">
  <g id="twitter" transform="translate(-372.69 -567.914)">
    <path id="Path_16" data-name="Path 16" d="M397,568.282a10.363,10.363,0,0,1-3.258,1.227A5.154,5.154,0,0,0,390,567.914a5.054,5.054,0,0,0-5,6.2,14.644,14.644,0,0,1-10.573-5.276,4.972,4.972,0,0,0-.7,2.539,5.028,5.028,0,0,0,2.283,4.2,5.179,5.179,0,0,1-2.323-.632v.063a5.075,5.075,0,0,0,4.115,4.952,5.2,5.2,0,0,1-1.352.177,5.273,5.273,0,0,1-.965-.091,5.127,5.127,0,0,0,4.792,3.507,10.4,10.4,0,0,1-6.372,2.161,10.751,10.751,0,0,1-1.223-.07,14.7,14.7,0,0,0,7.863,2.268,14.373,14.373,0,0,0,14.593-14.365c0-.219,0-.438-.013-.653a10.339,10.339,0,0,0,2.559-2.614,10.368,10.368,0,0,1-2.947.794A5.076,5.076,0,0,0,397,568.282Z" fill="#fff"/>
  </g>
</svg>
